ffmpeg version git-2026-04-19-de18feb Copyright (c) 2000-2026 the FFmpeg developers
  built with gcc 9 (Ubuntu 9.4.0-1ubuntu1~20.04.2)
  configuration: --enable-shared --enable-gpl --enable-libx264
  libavutil      60. 30.100 / 60. 30.100
  libavcodec     62. 30.100 / 62. 30.100
  libavformat    62. 13.102 / 62. 13.102
  libavdevice    62.  4.100 / 62.  4.100
  libavfilter    11. 15.101 / 11. 15.101
  libswscale      9.  7.100 /  9.  7.100
  libswresample   6.  4.100 /  6.  4.100
[in#0/x11grab @ 0x55fd4b868c40] Stream #0: not enough frames to estimate rate; consider increasing probesize
Input #0, x11grab, from ':0.0+0,0':
  Duration: N/A, start: 1777436170.376014, bitrate: 3678192 kb/s
  Stream #0:0: Video: rawvideo (BGR[0] / 0x524742), bgr0, 2870x1602, 3678192 kb/s, 25 fps, 1000k tbr, 1000k tbn, start 1777436170.376014
Stream mapping:
  Stream #0:0 -> #0:0 (rawvideo (native) -> h264 (libx264))
[libx264 @ 0x55fd4b876f00] using cpu capabilities: MMX2 SSE2Fast SSSE3 SSE4.2 AVX FMA3 BMI2 AVX2
[libx264 @ 0x55fd4b876f00] profile High, level 5.0
[libx264 @ 0x55fd4b876f00] 264 - core 155 r2917 0a84d98 - H.264/MPEG-4 AVC codec - Copyleft 2003-2018 - http://www.videolan.org/x264.html - options: cabac=1 ref=1 deblock=1:0:0 analyse=0x3:0x113 me=hex subme=2 psy=1 psy_rd=1.00:0.00 mixed_ref=0 me_range=16 chroma_me=1 trellis=0 8x8dct=1 cqm=0 deadzone=21,11 fast_pskip=1 chroma_qp_offset=0 threads=6 lookahead_threads=2 sliced_threads=0 nr=0 decimate=1 interlaced=0 bluray_compat=0 constrained_intra=0 bframes=3 b_pyramid=2 b_adapt=1 b_bias=0 direct=1 weightb=1 open_gop=0 weightp=1 keyint=250 keyint_min=25 scenecut=40 intra_refresh=0 rc_lookahead=10 rc=crf mbtree=1 crf=23.0 qcomp=0.60 qpmin=0 qpmax=69 qpstep=4 ip_ratio=1.40 aq=1:1.00
Output #0, matroska, to '/home/lmy/catkin_ws/recordings_tmp/exp_10_segment_v5/screen.mkv':
  Metadata:
    encoder         : Lavf62.13.102
  Stream #0:0: Video: h264 (H264 / 0x34363248), yuv420p(tv, progressive), 2870x1602, q=2-31, 25 fps, 1k tbn
    Metadata:
      encoder         : Lavc62.30.100 libx264
    Side data:
      CPB properties: bitrate max/min/avg: 0/0/0 buffer size: 0 vbv_delay: N/A
frame=    0 fps=0.0 q=0.0 size=       0KiB time=N/A bitrate=N/A speed=N/A elapsed=0:00:00.50    frame=    5 fps=5.0 q=28.0 size=       1KiB time=00:00:00.16 bitrate=  29.7kbits/s speed=0.16x elapsed=0:00:01.00    frame=   18 fps= 12 q=28.0 size=       1KiB time=00:00:00.68 bitrate=   7.0kbits/s speed=0.453x elapsed=0:00:01.50    frame=   31 fps= 15 q=28.0 size=       1KiB time=00:00:01.16 bitrate=   4.1kbits/s speed=0.579x elapsed=0:00:02.00    frame=   43 fps= 17 q=28.0 size=       1KiB time=00:00:01.64 bitrate=   2.9kbits/s speed=0.655x elapsed=0:00:02.50    frame=   56 fps= 19 q=28.0 size=       1KiB time=00:00:02.20 bitrate=   2.2kbits/s speed=0.732x elapsed=0:00:03.00    frame=   68 fps= 19 q=28.0 size=       1KiB time=00:00:02.64 bitrate=   1.8kbits/s speed=0.753x elapsed=0:00:03.50    frame=   81 fps= 20 q=28.0 size=       1KiB time=00:00:03.20 bitrate=   1.5kbits/s speed=0.799x elapsed=0:00:04.00    frame=   93 fps= 21 q=28.0 size=       1KiB time=00:00:03.68 bitrate=   1.3kbits/s speed=0.817x elapsed=0:00:04.50    frame=  106 fps= 21 q=28.0 size=       1KiB time=00:00:04.20 bitrate=   1.1kbits/s speed=0.839x elapsed=0:00:05.00    frame=  118 fps= 21 q=28.0 size=       1KiB time=00:00:04.64 bitrate=   1.0kbits/s speed=0.843x elapsed=0:00:05.50    frame=  131 fps= 22 q=28.0 size=     166KiB time=00:00:05.20 bitrate= 262.1kbits/s speed=0.866x elapsed=0:00:06.00    frame=  143 fps= 22 q=28.0 size=     166KiB time=00:00:05.64 bitrate= 241.7kbits/s speed=0.867x elapsed=0:00:06.50    frame=  156 fps= 22 q=28.0 size=     166KiB time=00:00:06.20 bitrate= 219.8kbits/s speed=0.885x elapsed=0:00:07.00    frame=  168 fps= 22 q=28.0 size=     166KiB time=00:00:06.68 bitrate= 204.0kbits/s speed=0.89x elapsed=0:00:07.50    frame=  181 fps= 23 q=28.0 size=     166KiB time=00:00:07.20 bitrate= 189.3kbits/s speed=0.899x elapsed=0:00:08.01    frame=  194 fps= 23 q=28.0 size=     166KiB time=00:00:07.68 bitrate= 177.5kbits/s speed=0.902x elapsed=0:00:08.51    frame=  206 fps= 23 q=28.0 size=     166KiB time=00:00:08.16 bitrate= 167.0kbits/s speed=0.905x elapsed=0:00:09.01    frame=  219 fps= 23 q=28.0 size=     166KiB time=00:00:08.68 bitrate= 157.0kbits/s speed=0.912x elapsed=0:00:09.51    frame=  231 fps= 23 q=28.0 size=     166KiB time=00:00:09.16 bitrate= 148.8kbits/s speed=0.915x elapsed=0:00:10.01    frame=  244 fps= 23 q=28.0 size=     166KiB time=00:00:09.72 bitrate= 140.2kbits/s speed=0.924x elapsed=0:00:10.51    frame=  256 fps= 23 q=28.0 size=     256KiB time=00:00:10.20 bitrate= 205.6kbits/s speed=0.926x elapsed=0:00:11.01    frame=  268 fps= 23 q=28.0 size=     256KiB time=00:00:10.64 bitrate= 197.1kbits/s speed=0.924x elapsed=0:00:11.51    frame=  281 fps= 23 q=28.0 size=     256KiB time=00:00:11.16 bitrate= 187.9kbits/s speed=0.929x elapsed=0:00:12.01    frame=  293 fps= 23 q=28.0 size=     256KiB time=00:00:11.64 bitrate= 180.2kbits/s speed=0.93x elapsed=0:00:12.52    frame=  306 fps= 23 q=28.0 size=     256KiB time=00:00:12.20 bitrate= 171.9kbits/s speed=0.937x elapsed=0:00:13.02    frame=  319 fps= 24 q=28.0 size=     256KiB time=00:00:12.72 bitrate= 164.9kbits/s speed=0.941x elapsed=0:00:13.52    frame=  331 fps= 24 q=28.0 size=     256KiB time=00:00:13.20 bitrate= 158.9kbits/s speed=0.941x elapsed=0:00:14.02    frame=  344 fps= 24 q=28.0 size=     256KiB time=00:00:13.68 bitrate= 153.3kbits/s speed=0.942x elapsed=0:00:14.52    frame=  356 fps= 24 q=28.0 size=     256KiB time=00:00:14.20 bitrate= 147.7kbits/s speed=0.945x elapsed=0:00:15.02    frame=  369 fps= 24 q=28.0 size=     256KiB time=00:00:14.68 bitrate= 142.9kbits/s speed=0.945x elapsed=0:00:15.52    frame=  381 fps= 24 q=28.0 size=     256KiB time=00:00:15.20 bitrate= 138.0kbits/s speed=0.948x elapsed=0:00:16.02    frame=  394 fps= 24 q=28.0 size=     256KiB time=00:00:15.72 bitrate= 133.4kbits/s speed=0.951x elapsed=0:00:16.52    frame=  407 fps= 24 q=28.0 size=     256KiB time=00:00:16.24 bitrate= 129.1kbits/s speed=0.954x elapsed=0:00:17.03    frame=  419 fps= 24 q=28.0 size=     256KiB time=00:00:16.68 bitrate= 125.7kbits/s speed=0.951x elapsed=0:00:17.53    frame=  432 fps= 24 q=28.0 size=     256KiB time=00:00:17.24 bitrate= 121.6kbits/s speed=0.956x elapsed=0:00:18.03    frame=  444 fps= 24 q=28.0 size=     256KiB time=00:00:17.72 bitrate= 118.3kbits/s speed=0.956x elapsed=0:00:18.53    frame=  457 fps= 24 q=28.0 size=     256KiB time=00:00:18.20 bitrate= 115.2kbits/s speed=0.956x elapsed=0:00:19.03    frame=  469 fps= 24 q=28.0 size=     256KiB time=00:00:18.72 bitrate= 112.0kbits/s speed=0.958x elapsed=0:00:19.53    frame=  481 fps= 24 q=28.0 size=     256KiB time=00:00:19.20 bitrate= 109.2kbits/s speed=0.958x elapsed=0:00:20.03    frame=  494 fps= 24 q=28.0 size=     256KiB time=00:00:19.72 bitrate= 106.3kbits/s speed=0.96x elapsed=0:00:20.53    frame=  506 fps= 24 q=28.0 size=     512KiB time=00:00:20.16 bitrate= 208.1kbits/s speed=0.958x elapsed=0:00:21.03    frame=  519 fps= 24 q=28.0 size=     512KiB time=00:00:20.68 bitrate= 202.8kbits/s speed=0.96x elapsed=0:00:21.53    frame=  531 fps= 24 q=28.0 size=     512KiB time=00:00:21.20 bitrate= 197.8kbits/s speed=0.962x elapsed=0:00:22.03    frame=  544 fps= 24 q=28.0 size=     512KiB time=00:00:21.68 bitrate= 193.5kbits/s speed=0.962x elapsed=0:00:22.53    frame=  557 fps= 24 q=28.0 size=     512KiB time=00:00:22.20 bitrate= 188.9kbits/s speed=0.964x elapsed=0:00:23.03    frame=  569 fps= 24 q=28.0 size=     512KiB time=00:00:22.68 bitrate= 184.9kbits/s speed=0.964x elapsed=0:00:23.53    frame=  582 fps= 24 q=28.0 size=     512KiB time=00:00:23.20 bitrate= 180.8kbits/s speed=0.965x elapsed=0:00:24.03    frame=  594 fps= 24 q=28.0 size=     512KiB time=00:00:23.68 bitrate= 177.1kbits/s speed=0.965x elapsed=0:00:24.53    frame=  607 fps= 24 q=28.0 size=     512KiB time=00:00:24.20 bitrate= 173.3kbits/s speed=0.967x elapsed=0:00:25.03    frame=  619 fps= 24 q=28.0 size=     512KiB time=00:00:24.72 bitrate= 169.7kbits/s speed=0.968x elapsed=0:00:25.53    frame=  632 fps= 24 q=28.0 size=     768KiB time=00:00:25.20 bitrate= 249.7kbits/s speed=0.968x elapsed=0:00:26.03    frame=  644 fps= 24 q=28.0 size=     768KiB time=00:00:25.68 bitrate= 245.0kbits/s speed=0.968x elapsed=0:00:26.53    frame=  657 fps= 24 q=28.0 size=     768KiB time=00:00:26.24 bitrate= 239.8kbits/s speed=0.97x elapsed=0:00:27.04    frame=  669 fps= 24 q=28.0 size=     768KiB time=00:00:26.68 bitrate= 235.8kbits/s speed=0.969x elapsed=0:00:27.54    frame=  682 fps= 24 q=28.0 size=     768KiB time=00:00:27.20 bitrate= 231.3kbits/s speed=0.97x elapsed=0:00:28.04    frame=  694 fps= 24 q=28.0 size=     768KiB time=00:00:27.68 bitrate= 227.3kbits/s speed=0.97x elapsed=0:00:28.54    frame=  707 fps= 24 q=28.0 size=     768KiB time=00:00:28.20 bitrate= 223.1kbits/s speed=0.971x elapsed=0:00:29.04    frame=  719 fps= 24 q=28.0 size=     768KiB time=00:00:28.72 bitrate= 219.1kbits/s speed=0.972x elapsed=0:00:29.54    frame=  732 fps= 24 q=28.0 size=     768KiB time=00:00:29.20 bitrate= 215.5kbits/s speed=0.972x elapsed=0:00:30.04    frame=  744 fps= 24 q=28.0 size=     768KiB time=00:00:29.68 bitrate= 212.0kbits/s speed=0.972x elapsed=0:00:30.54    frame=  757 fps= 24 q=28.0 size=     768KiB time=00:00:30.20 bitrate= 208.3kbits/s speed=0.973x elapsed=0:00:31.04    frame=  769 fps= 24 q=28.0 size=     768KiB time=00:00:30.72 bitrate= 204.8kbits/s speed=0.974x elapsed=0:00:31.54    frame=  782 fps= 24 q=28.0 size=     768KiB time=00:00:31.24 bitrate= 201.4kbits/s speed=0.975x elapsed=0:00:32.04    frame=  794 fps= 24 q=28.0 size=     768KiB time=00:00:31.72 bitrate= 198.3kbits/s speed=0.975x elapsed=0:00:32.54    frame=  807 fps= 24 q=28.0 size=     768KiB time=00:00:32.24 bitrate= 195.1kbits/s speed=0.976x elapsed=0:00:33.04    frame=  819 fps= 24 q=28.0 size=     768KiB time=00:00:32.72 bitrate= 192.3kbits/s speed=0.975x elapsed=0:00:33.54    frame=  832 fps= 24 q=28.0 size=     768KiB time=00:00:33.24 bitrate= 189.3kbits/s speed=0.976x elapsed=0:00:34.04    frame=  844 fps= 24 q=28.0 size=     768KiB time=00:00:33.72 bitrate= 186.6kbits/s speed=0.976x elapsed=0:00:34.54    frame=  857 fps= 24 q=28.0 size=     768KiB time=00:00:34.20 bitrate= 184.0kbits/s speed=0.976x elapsed=0:00:35.05    frame=  869 fps= 24 q=28.0 size=     768KiB time=00:00:34.72 bitrate= 181.2kbits/s speed=0.977x elapsed=0:00:35.55    frame=  882 fps= 24 q=28.0 size=    1024KiB time=00:00:35.24 bitrate= 238.0kbits/s speed=0.977x elapsed=0:00:36.05    frame=  895 fps= 24 q=28.0 size=    1024KiB time=00:00:35.76 bitrate= 234.6kbits/s speed=0.978x elapsed=0:00:36.55    frame=  907 fps= 24 q=28.0 size=    1024KiB time=00:00:36.24 bitrate= 231.5kbits/s speed=0.978x elapsed=0:00:37.05    frame=  920 fps= 24 q=28.0 size=    1024KiB time=00:00:36.76 bitrate= 228.2kbits/s speed=0.979x elapsed=0:00:37.55    frame=  932 fps= 24 q=28.0 size=    1024KiB time=00:00:37.20 bitrate= 225.5kbits/s speed=0.977x elapsed=0:00:38.05    frame=  945 fps= 25 q=28.0 size=    1024KiB time=00:00:37.76 bitrate= 222.2kbits/s speed=0.979x elapsed=0:00:38.56    frame=  957 fps= 24 q=28.0 size=    1024KiB time=00:00:38.20 bitrate= 219.6kbits/s speed=0.978x elapsed=0:00:39.06    frame=  970 fps= 25 q=28.0 size=    1024KiB time=00:00:38.76 bitrate= 216.4kbits/s speed=0.98x elapsed=0:00:39.56    frame=  982 fps= 25 q=28.0 size=    1024KiB time=00:00:39.20 bitrate= 214.0kbits/s speed=0.978x elapsed=0:00:40.06    frame=  995 fps= 25 q=28.0 size=    1024KiB time=00:00:39.76 bitrate= 211.0kbits/s speed=0.98x elapsed=0:00:40.56    frame= 1007 fps= 25 q=28.0 size=    1024KiB time=00:00:40.20 bitrate= 208.7kbits/s speed=0.979x elapsed=0:00:41.06    frame= 1020 fps= 25 q=28.0 size=    1024KiB time=00:00:40.72 bitrate= 206.0kbits/s speed=0.98x elapsed=0:00:41.56    frame= 1032 fps= 25 q=28.0 size=    1024KiB time=00:00:41.24 bitrate= 203.4kbits/s speed=0.98x elapsed=0:00:42.06    frame= 1045 fps= 25 q=28.0 size=    1024KiB time=00:00:41.72 bitrate= 201.1kbits/s speed=0.98x elapsed=0:00:42.56    frame= 1057 fps= 25 q=28.0 size=    1024KiB time=00:00:42.20 bitrate= 198.8kbits/s speed=0.98x elapsed=0:00:43.06    frame= 1070 fps= 25 q=28.0 size=    1024KiB time=00:00:42.72 bitrate= 196.4kbits/s speed=0.981x elapsed=0:00:43.56    frame= 1082 fps= 25 q=28.0 size=    1024KiB time=00:00:43.20 bitrate= 194.2kbits/s speed=0.98x elapsed=0:00:44.06    frame= 1095 fps= 25 q=28.0 size=    1024KiB time=00:00:43.76 bitrate= 191.7kbits/s speed=0.982x elapsed=0:00:44.56    frame= 1107 fps= 25 q=28.0 size=    1024KiB time=00:00:44.24 bitrate= 189.6kbits/s speed=0.982x elapsed=0:00:45.06    frame= 1120 fps= 25 q=28.0 size=    1024KiB time=00:00:44.72 bitrate= 187.6kbits/s speed=0.981x elapsed=0:00:45.56    frame= 1132 fps= 25 q=28.0 size=    1280KiB time=00:00:45.24 bitrate= 231.8kbits/s speed=0.982x elapsed=0:00:46.06    frame= 1145 fps= 25 q=28.0 size=    1280KiB time=00:00:45.76 bitrate= 229.1kbits/s speed=0.983x elapsed=0:00:46.56    frame= 1157 fps= 25 q=28.0 size=    1280KiB time=00:00:46.20 bitrate= 227.0kbits/s speed=0.982x elapsed=0:00:47.06    frame= 1170 fps= 25 q=28.0 size=    1280KiB time=00:00:46.76 bitrate= 224.2kbits/s speed=0.983x elapsed=0:00:47.56    frame= 1182 fps= 25 q=28.0 size=    1280KiB time=00:00:47.20 bitrate= 222.2kbits/s speed=0.982x elapsed=0:00:48.06    frame= 1195 fps= 25 q=28.0 size=    1280KiB time=00:00:47.72 bitrate= 219.7kbits/s speed=0.982x elapsed=0:00:48.57    frame= 1208 fps= 25 q=28.0 size=    1280KiB time=00:00:48.24 bitrate= 217.4kbits/s speed=0.983x elapsed=0:00:49.07    frame= 1220 fps= 25 q=28.0 size=    1280KiB time=00:00:48.76 bitrate= 215.0kbits/s speed=0.984x elapsed=0:00:49.57    frame= 1233 fps= 25 q=28.0 size=    1280KiB time=00:00:49.24 bitrate= 213.0kbits/s speed=0.983x elapsed=0:00:50.07    frame= 1245 fps= 25 q=28.0 size=    1280KiB time=00:00:49.76 bitrate= 210.7kbits/s speed=0.984x elapsed=0:00:50.57    frame= 1258 fps= 25 q=28.0 size=    1280KiB time=00:00:50.24 bitrate= 208.7kbits/s speed=0.984x elapsed=0:00:51.07    frame= 1270 fps= 25 q=28.0 size=    1280KiB time=00:00:50.76 bitrate= 206.6kbits/s speed=0.984x elapsed=0:00:51.57    frame= 1282 fps= 25 q=28.0 size=    1280KiB time=00:00:51.20 bitrate= 204.8kbits/s speed=0.983x elapsed=0:00:52.07    frame= 1295 fps= 25 q=28.0 size=    1280KiB time=00:00:51.76 bitrate= 202.6kbits/s speed=0.984x elapsed=0:00:52.57    frame= 1307 fps= 25 q=28.0 size=    1280KiB time=00:00:52.20 bitrate= 200.9kbits/s speed=0.983x elapsed=0:00:53.07    frame= 1320 fps= 25 q=28.0 size=    1280KiB time=00:00:52.76 bitrate= 198.7kbits/s speed=0.985x elapsed=0:00:53.57    frame= 1333 fps= 25 q=28.0 size=    1280KiB time=00:00:53.28 bitrate= 196.8kbits/s speed=0.985x elapsed=0:00:54.07    frame= 1345 fps= 25 q=28.0 size=    1280KiB time=00:00:53.72 bitrate= 195.2kbits/s speed=0.984x elapsed=0:00:54.58    frame= 1358 fps= 25 q=28.0 size=    1280KiB time=00:00:54.28 bitrate= 193.2kbits/s speed=0.985x elapsed=0:00:55.08    frame= 1370 fps= 25 q=28.0 size=    1280KiB time=00:00:54.72 bitrate= 191.6kbits/s speed=0.984x elapsed=0:00:55.58    frame= 1383 fps= 25 q=28.0 size=    1536KiB time=00:00:55.28 bitrate= 227.6kbits/s speed=0.986x elapsed=0:00:56.08    frame= 1395 fps= 25 q=28.0 size=    1536KiB time=00:00:55.76 bitrate= 225.7kbits/s speed=0.985x elapsed=0:00:56.58    frame= 1408 fps= 25 q=28.0 size=    1536KiB time=00:00:56.24 bitrate= 223.7kbits/s speed=0.985x elapsed=0:00:57.08    frame= 1420 fps= 25 q=28.0 size=    1536KiB time=00:00:56.76 bitrate= 221.7kbits/s speed=0.986x elapsed=0:00:57.58    frame= 1433 fps= 25 q=28.0 size=    1536KiB time=00:00:57.24 bitrate= 219.8kbits/s speed=0.985x elapsed=0:00:58.08    frame= 1445 fps= 25 q=28.0 size=    1536KiB time=00:00:57.76 bitrate= 217.8kbits/s speed=0.986x elapsed=0:00:58.58    frame= 1458 fps= 25 q=28.0 size=    1536KiB time=00:00:58.28 bitrate= 215.9kbits/s speed=0.986x elapsed=0:00:59.08    frame= 1470 fps= 25 q=28.0 size=    1536KiB time=00:00:58.76 bitrate= 214.1kbits/s speed=0.986x elapsed=0:00:59.58    frame= 1483 fps= 25 q=28.0 size=    1536KiB time=00:00:59.28 bitrate= 212.3kbits/s speed=0.987x elapsed=0:01:00.08    frame= 1495 fps= 25 q=28.0 size=    1536KiB time=00:00:59.76 bitrate= 210.6kbits/s speed=0.986x elapsed=0:01:00.58    frame= 1508 fps= 25 q=28.0 size=    1792KiB time=00:01:00.24 bitrate= 243.7kbits/s speed=0.986x elapsed=0:01:01.08    frame= 1520 fps= 25 q=28.0 size=    1792KiB time=00:01:00.72 bitrate= 241.8kbits/s speed=0.986x elapsed=0:01:01.58    frame= 1533 fps= 25 q=28.0 size=    1792KiB time=00:01:01.28 bitrate= 239.6kbits/s speed=0.987x elapsed=0:01:02.08    frame= 1545 fps= 25 q=28.0 size=    1792KiB time=00:01:01.72 bitrate= 237.8kbits/s speed=0.986x elapsed=0:01:02.58    frame= 1558 fps= 25 q=28.0 size=    1792KiB time=00:01:02.24 bitrate= 235.9kbits/s speed=0.987x elapsed=0:01:03.08    frame= 1570 fps= 25 q=28.0 size=    1792KiB time=00:01:02.76 bitrate= 233.9kbits/s speed=0.987x elapsed=0:01:03.58    frame= 1583 fps= 25 q=28.0 size=    1792KiB time=00:01:03.28 bitrate= 232.0kbits/s speed=0.987x elapsed=0:01:04.09    frame= 1595 fps= 25 q=28.0 size=    1792KiB time=00:01:03.72 bitrate= 230.4kbits/s speed=0.987x elapsed=0:01:04.59    frame= 1608 fps= 25 q=28.0 size=    1792KiB time=00:01:04.24 bitrate= 228.5kbits/s speed=0.987x elapsed=0:01:05.09    frame= 1621 fps= 25 q=28.0 size=    1792KiB time=00:01:04.80 bitrate= 226.5kbits/s speed=0.988x elapsed=0:01:05.59    frame= 1633 fps= 25 q=28.0 size=    2048KiB time=00:01:05.28 bitrate= 257.0kbits/s speed=0.988x elapsed=0:01:06.09    frame= 1645 fps= 25 q=28.0 size=    2048KiB time=00:01:05.72 bitrate= 255.3kbits/s speed=0.987x elapsed=0:01:06.59    frame= 1658 fps= 25 q=28.0 size=    2048KiB time=00:01:06.28 bitrate= 253.1kbits/s speed=0.988x elapsed=0:01:07.09    frame= 1671 fps= 25 q=28.0 size=    2048KiB time=00:01:06.76 bitrate= 251.3kbits/s speed=0.988x elapsed=0:01:07.59    frame= 1683 fps= 25 q=28.0 size=    2048KiB time=00:01:07.24 bitrate= 249.5kbits/s speed=0.987x elapsed=0:01:08.09    frame= 1696 fps= 25 q=28.0 size=    2048KiB time=00:01:07.76 bitrate= 247.6kbits/s speed=0.988x elapsed=0:01:08.59    frame= 1708 fps= 25 q=28.0 size=    2048KiB time=00:01:08.24 bitrate= 245.9kbits/s speed=0.988x elapsed=0:01:09.09    frame= 1721 fps= 25 q=28.0 size=    2048KiB time=00:01:08.80 bitrate= 243.9kbits/s speed=0.988x elapsed=0:01:09.60    [out#0/matroska @ 0x55fd4b875500] Error writing trailer: Immediate exit requested
[out#0/matroska @ 0x55fd4b875500] Error closing file: Immediate exit requested
[out#0/matroska @ 0x55fd4b875500] video:2638KiB audio:0KiB subtitle:0KiB other streams:0KiB global headers:0KiB muxing overhead: unknown
frame= 1754 fps= 25 q=-1.0 Lsize=    2048KiB time=00:01:10.12 bitrate= 239.3kbits/s speed=0.999x elapsed=0:01:10.22    
[libx264 @ 0x55fd4b876f00] frame I:8     Avg QP:12.00  size:141340
[libx264 @ 0x55fd4b876f00] frame P:443   Avg QP:17.27  size:  2039
[libx264 @ 0x55fd4b876f00] frame B:1303  Avg QP:24.26  size:   512
[libx264 @ 0x55fd4b876f00] consecutive B-frames:  0.8%  0.3%  0.3% 98.5%
[libx264 @ 0x55fd4b876f00] mb I  I16..4: 87.2%  1.8% 11.1%
[libx264 @ 0x55fd4b876f00] mb P  I16..4:  0.3%  0.1%  0.0%  P16..4:  0.3%  0.2%  0.1%  0.0%  0.0%    skip:99.1%
[libx264 @ 0x55fd4b876f00] mb B  I16..4:  0.0%  0.0%  0.0%  B16..8:  0.3%  0.1%  0.0%  direct: 0.0%  skip:99.6%  L0:45.9% L1:47.3% BI: 6.8%
[libx264 @ 0x55fd4b876f00] 8x8 transform intra:4.3% inter:2.4%
[libx264 @ 0x55fd4b876f00] coded y,uvDC,uvAC intra: 16.2% 22.2% 18.4% inter: 0.1% 0.1% 0.0%
[libx264 @ 0x55fd4b876f00] i16 v,h,dc,p: 69% 29%  2%  0%
[libx264 @ 0x55fd4b876f00] i8 v,h,dc,ddl,ddr,vr,hd,vl,hu: 14% 20% 61%  1%  1%  2%  1%  0%  1%
[libx264 @ 0x55fd4b876f00] i4 v,h,dc,ddl,ddr,vr,hd,vl,hu: 34% 27% 19%  3%  3%  5%  3%  4%  3%
[libx264 @ 0x55fd4b876f00] i8c dc,h,v,p: 61% 30%  9%  0%
[libx264 @ 0x55fd4b876f00] Weighted P-Frames: Y:0.0% UV:0.0%
[libx264 @ 0x55fd4b876f00] kb/s:307.77
Exiting normally, received signal 2.
